<svg width="40" height="40" viewBox="0 0 40 40" fill="none" xmlns="http://www.w3.org/2000/svg">
<path d="M20.0001 3.33179C29.2067 3.33179 36.6701 10.7951 36.6701 20.0018C36.6701 29.2068 29.2067 36.6701 20.0001 36.6701C10.7934 36.6701 3.33008 29.2068 3.33008 20.0018C3.33008 10.7951 10.7934 3.33179 20.0001 3.33179ZM20.0001 5.83179C18.1264 5.81147 16.2673 6.16295 14.5304 6.86591C12.7935 7.56886 11.2133 8.60932 9.88118 9.92706C8.54907 11.2448 7.49153 12.8137 6.76978 14.5429C6.04803 16.272 5.6764 18.1272 5.6764 20.001C5.6764 21.8747 6.04803 23.7299 6.76978 25.4591C7.49153 27.1882 8.54907 28.7571 9.88118 30.0748C11.2133 31.3926 12.7935 32.433 14.5304 33.136C16.2673 33.839 18.1264 34.1904 20.0001 34.1701C23.7201 34.1131 27.2685 32.5952 29.879 29.9444C32.4895 27.2935 33.9528 23.7223 33.9528 20.0018C33.9528 16.2813 32.4895 12.7101 29.879 10.0592C27.2685 7.40835 23.7201 5.89051 20.0001 5.83345V5.83179ZM19.9934 17.4985C20.2958 17.4981 20.588 17.6073 20.816 17.8059C21.044 18.0044 21.1923 18.2789 21.2334 18.5785L21.2451 18.7485L21.2501 27.9185C21.25 28.2352 21.1297 28.54 20.9135 28.7714C20.6972 29.0029 20.4012 29.1436 20.0853 29.1652C19.7693 29.1867 19.4569 29.0876 19.2112 28.8877C18.9656 28.6879 18.8049 28.4022 18.7617 28.0885L18.7501 27.9201L18.7451 18.7501C18.7451 18.4186 18.8768 18.1007 19.1112 17.8662C19.3456 17.6318 19.6636 17.5001 19.9951 17.5001L19.9934 17.4985ZM20.0001 11.6718C20.2231 11.6647 20.4452 11.7026 20.6532 11.783C20.8613 11.8635 21.0511 11.9849 21.2113 12.1401C21.3715 12.2954 21.4989 12.4812 21.5859 12.6866C21.6729 12.8921 21.7178 13.1129 21.7178 13.336C21.7178 13.559 21.6729 13.7798 21.5859 13.9853C21.4989 14.1907 21.3715 14.3765 21.2113 14.5318C21.0511 14.687 20.8613 14.8084 20.6532 14.8889C20.4452 14.9694 20.2231 15.0072 20.0001 15.0001C19.5678 14.9864 19.1579 14.8051 18.8569 14.4945C18.556 14.1839 18.3878 13.7684 18.3878 13.336C18.3878 12.9035 18.556 12.488 18.8569 12.1774C19.1579 11.8668 19.5678 11.6855 20.0001 11.6718Z" fill="white"/>
</svg>
