<svg width="40" height="40" viewBox="0 0 40 40" fill="none" xmlns="http://www.w3.org/2000/svg">
<path d="M19.9999 3.33325C29.2049 3.33325 36.6666 10.7949 36.6666 19.9999C36.6666 29.2049 29.2049 36.6666 19.9999 36.6666C10.7949 36.6666 3.33325 29.2049 3.33325 19.9999C3.33325 10.7949 10.7949 3.33325 19.9999 3.33325ZM19.9999 5.83325C16.2427 5.83325 12.6393 7.32581 9.98257 9.98257C7.32581 12.6393 5.83325 16.2427 5.83325 19.9999C5.83325 23.7572 7.32581 27.3605 9.98257 30.0173C12.6393 32.674 16.2427 34.1666 19.9999 34.1666C23.7572 34.1666 27.3605 32.674 30.0173 30.0173C32.674 27.3605 34.1666 23.7572 34.1666 19.9999C34.1666 16.2427 32.674 12.6393 30.0173 9.98257C27.3605 7.32581 23.7572 5.83325 19.9999 5.83325ZM17.9166 22.3999L25.3666 14.9499C25.5899 14.7283 25.8886 14.5991 26.203 14.588C26.5174 14.577 26.8245 14.6848 27.0628 14.8902C27.3012 15.0955 27.4534 15.3832 27.489 15.6958C27.5246 16.0084 27.441 16.3229 27.2549 16.5766L27.1333 16.7166L18.7999 25.0499C18.5883 25.2616 18.3077 25.3903 18.0092 25.4127C17.7107 25.435 17.414 25.3494 17.1733 25.1716L17.0333 25.0499L12.8666 20.8833C12.645 20.6599 12.5158 20.3612 12.5047 20.0468C12.4936 19.7324 12.6015 19.4254 12.8069 19.187C13.0122 18.9486 13.2999 18.7965 13.6125 18.7609C13.925 18.7253 14.2396 18.8088 14.4933 18.9949L14.6333 19.1166L17.9166 22.3999L25.3666 14.9499L17.9166 22.3999Z" fill="white"/>
</svg>
